<svg width="39" height="41" viewBox="0 0 39 41" fill="none" xmlns="http://www.w3.org/2000/svg">
<path d="M32.45 7.46353C33.0305 7.79329 33.7007 7.98273 34.4147 7.98273C36.6156 7.98273 38.4061 6.1922 38.4061 3.99141C38.4061 1.79053 36.6156 0 34.4147 0C32.2139 0 30.4234 1.79053 30.4234 3.99141C30.4234 4.60441 30.5627 5.18541 30.8107 5.70493L26.5022 8.96786C25.8653 8.53769 25.0983 8.28629 24.2737 8.28629C23.4688 8.28629 22.7194 8.52654 22.0918 8.93792L17.8676 5.48164C18.0328 5.04422 18.1238 4.57081 18.1238 4.07629C18.1238 1.8755 16.3333 0.0849676 14.1325 0.0849676C11.9317 0.0849676 10.1412 1.8755 10.1412 4.07629C10.1412 4.63412 10.2566 5.16542 10.4642 5.64807L4.94604 11.4532C4.63993 11.3778 4.32037 11.3369 3.99133 11.3369C1.79053 11.3369 0 13.1275 0 15.3282C0 17.529 1.79053 19.3196 3.99133 19.3196C6.19212 19.3196 7.98265 17.529 7.98265 15.3282C7.98265 14.3404 7.62112 13.4359 7.02444 12.7382L12.0332 7.46902C12.6435 7.84807 13.3627 8.0677 14.1325 8.0677C14.9706 8.0677 15.7488 7.80746 16.3917 7.36439L20.5727 10.7854C20.3861 11.2467 20.2822 11.7501 20.2822 12.2776C20.2822 14.4784 22.0728 16.2689 24.2736 16.2689C26.4744 16.2689 28.2649 14.4784 28.2649 12.2776C28.2649 11.7699 28.1686 11.2845 27.9949 10.8375L32.45 7.46353ZM34.4147 2.39167C35.2968 2.39167 36.0145 3.10924 36.0145 3.99141C36.0145 4.87341 35.2969 5.59098 34.4147 5.59098C33.5327 5.59098 32.8151 4.87341 32.8151 3.99141C32.8152 3.10932 33.5327 2.39167 34.4147 2.39167ZM3.99133 16.9279C3.10932 16.9279 2.39167 16.2103 2.39167 15.3282C2.39167 14.4462 3.10924 13.7286 3.99133 13.7286C4.87333 13.7286 5.59098 14.4462 5.59098 15.3282C5.59098 16.2103 4.87333 16.9279 3.99133 16.9279ZM14.1325 5.67595C13.2505 5.67595 12.5328 4.95838 12.5328 4.07629C12.5328 3.19421 13.2504 2.47672 14.1325 2.47672C15.0146 2.47672 15.7321 3.19429 15.7321 4.07629C15.7321 4.9583 15.0145 5.67595 14.1325 5.67595ZM24.2737 13.8771C23.3916 13.8771 22.674 13.1595 22.674 12.2775C22.674 11.3955 23.3916 10.6779 24.2737 10.6779C25.1557 10.6779 25.8733 11.3954 25.8733 12.2775C25.8733 13.1596 25.1557 13.8771 24.2737 13.8771Z" fill="white"/>
<path d="M34.3466 15.4194C32.1955 15.4194 30.4453 17.1696 30.4453 19.3207V40.7716H38.2479V19.3207C38.2479 17.1696 36.4978 15.4194 34.3466 15.4194V15.4194ZM35.8562 38.3799H32.837V19.3207C32.837 18.4884 33.5142 17.8112 34.3465 17.8112C35.1789 17.8112 35.8561 18.4884 35.8561 19.3207V38.3799H35.8562Z" fill="white"/>
<path d="M24.2743 25.1912C22.1232 25.1912 20.373 26.9412 20.373 29.0925V40.7718H28.1757V29.0924C28.1757 26.9412 26.4255 25.1912 24.2743 25.1912ZM25.7839 38.38H22.7647V29.0924C22.7647 28.26 23.4419 27.5828 24.2742 27.5828C25.1066 27.5828 25.7838 28.26 25.7838 29.0924V38.38H25.7839Z" fill="white"/>
<path d="M14.0693 18.6086C11.9181 18.6086 10.168 20.3587 10.168 22.51V40.7717H17.9707V22.51C17.9707 20.3588 16.2206 18.6086 14.0693 18.6086ZM15.579 38.38H12.5597V22.51C12.5597 21.6776 13.2369 21.0004 14.0693 21.0004C14.9017 21.0004 15.5789 21.6776 15.5789 22.51V38.38H15.579Z" fill="white"/>
<path d="M3.999 28.7732C1.84781 28.7732 0.0976562 30.5233 0.0976562 32.6745V40.7716H7.90026V32.6745C7.90026 30.5233 6.1501 28.7732 3.999 28.7732V28.7732ZM5.50851 38.3799H2.48941V32.6745C2.48941 31.8421 3.1666 31.1649 3.999 31.1649C4.83131 31.1649 5.50851 31.8421 5.50851 32.6745V38.3799Z" fill="white"/>
</svg>
