<svg width="153" height="49" viewBox="0 0 153 49" fill="none" xmlns="http://www.w3.org/2000/svg">
<g opacity="0.2">
<path opacity="0.2" d="M22.0183 48.3901C19.567 48.3923 17.1577 47.7532 15.0297 46.5363L2.71093 39.4201C1.88595 38.9429 1.20113 38.2569 0.725262 37.4312C0.249399 36.6054 -0.00073388 35.6689 1.61733e-06 34.7159L0.0318948 20.4078C0.0362689 17.9384 0.68884 15.5135 1.92436 13.3755C3.15987 11.2375 4.93503 9.46131 7.07233 8.22455L19.9931 0.75754C20.6366 0.385553 21.3667 0.189697 22.11 0.189697C22.8533 0.189697 23.5834 0.385553 24.2269 0.75754L37.1517 8.22455C39.2872 9.46262 41.0605 11.2393 42.2946 13.3772C43.5286 15.5151 44.1801 17.9393 44.1841 20.4078L44.1602 35.0468C44.1575 35.8746 43.9383 36.6873 43.5243 37.4042C43.1102 38.1211 42.5158 38.7171 41.8001 39.1331L29.0946 46.4885C26.9453 47.7364 24.5037 48.3926 22.0183 48.3901ZM22.11 0.598074C21.4373 0.598672 20.7764 0.774548 20.1924 1.10837L7.27166 8.57139C5.19493 9.77271 3.47003 11.4983 2.26947 13.5754C1.06892 15.6526 0.43481 18.0086 0.43056 20.4078L0.398667 34.7159C0.396185 35.5986 0.626742 36.4664 1.06704 37.2315C1.50734 37.9966 2.14179 38.6319 2.90627 39.0733L15.225 46.1895C17.3079 47.3782 19.6664 47.9994 22.0646 47.991C24.4628 47.9826 26.8168 47.3449 28.8913 46.1416L41.5968 38.7863C42.2519 38.4057 42.7961 37.8603 43.1751 37.2043C43.5542 36.5482 43.755 35.8044 43.7575 35.0468L43.7815 20.4078C43.778 18.0099 43.1455 15.6548 41.9472 13.5778C40.7488 11.5008 39.0266 9.77453 36.9523 8.57139L24.0276 1.10039C23.4432 0.768324 22.7821 0.595135 22.11 0.598074Z" fill="#00D747"/>
</g>
<g opacity="0.3">
<path opacity="0.3" d="M21.9982 45.2486C17.3736 45.2436 12.8083 44.2072 8.63492 42.2148L2.66291 39.2686C1.83714 38.8654 1.1516 38.2234 0.695216 37.4258C0.238832 36.6282 0.0326704 35.7118 0.103476 34.7956L0.605795 28.106C0.947883 23.4374 2.34565 18.9074 4.69368 14.8577C7.04171 10.8081 10.2787 7.3445 14.1604 4.72823L20.8221 0.470478C21.2049 0.228063 21.6487 0.0993652 22.1018 0.0993652C22.555 0.0993652 22.9987 0.228063 23.3816 0.470478L30.0473 4.72025C33.9283 7.33823 37.1646 10.8028 39.5125 14.8529C41.8604 18.903 43.2586 23.4331 43.6019 28.102L44.0603 34.7478C44.1258 35.6625 43.9164 36.576 43.4589 37.3709C43.0014 38.1658 42.3168 38.8058 41.4929 39.2088L35.6605 42.0593C31.4599 44.1254 26.8467 45.2156 22.1656 45.2486H21.9982ZM22.1018 0.757517C21.7753 0.758108 21.4557 0.852179 21.1809 1.02861L14.5352 5.27839C10.7368 7.83878 7.56912 11.2279 5.2709 15.1904C2.97267 19.153 1.60385 23.5854 1.26758 28.1538L0.765261 34.8594C0.704389 35.6437 0.880971 36.4282 1.27203 37.1107C1.66309 37.7933 2.25053 38.3424 2.95792 38.6866L8.93791 41.6207C13.0703 43.5988 17.5978 44.6129 22.1791 44.5867C26.7604 44.5604 31.2759 43.4945 35.3854 41.4693L41.2218 38.6108C41.9291 38.2676 42.5172 37.7203 42.9102 37.0395C43.3032 36.3587 43.483 35.5757 43.4265 34.7916L42.968 28.1498C42.6308 23.5799 41.2599 19.1462 38.9588 15.1834C36.6576 11.2207 33.4864 7.83244 29.6845 5.2744L23.0228 1.02861C22.7471 0.854593 22.4279 0.762001 22.1018 0.761504V0.757517Z" fill="#00D747"/>
</g>
<g opacity="0.5">
<path opacity="0.5" d="M21.9039 42.0593C16.2718 42.0538 10.6691 41.2484 5.26357 39.6673L2.47291 38.7902C1.74135 38.5518 1.12581 38.0477 0.747885 37.3775C0.369965 36.7073 0.257155 35.9197 0.431741 35.1703L1.12941 32.288C3.84321 21.0073 9.80294 10.769 18.272 2.83854L20.8634 0.562158C21.2109 0.257693 21.6571 0.0898438 22.1192 0.0898438C22.5812 0.0898438 23.0274 0.257693 23.3749 0.562158L25.9463 2.83057C34.4173 10.7628 40.3773 21.0042 43.089 32.288L43.671 34.7398C43.8736 35.6029 43.7388 36.5107 43.2942 37.2777C42.8496 38.0447 42.1287 38.6129 41.279 38.866L39.3176 39.452C33.6744 41.1798 27.8056 42.0585 21.9039 42.0593ZM22.1112 0.88109C21.8443 0.879423 21.586 0.975902 21.3856 1.15218L18.8023 3.42458C10.4484 11.2528 4.57295 21.3585 1.90282 32.4913L1.22907 35.3577C1.09633 35.9151 1.17907 36.5021 1.46073 37.0011C1.74239 37.5001 2.20217 37.8743 2.74799 38.0487L5.51473 38.9218C16.498 42.13 28.1809 42.0483 39.1183 38.6866L41.0837 38.1005C41.74 37.9052 42.2965 37.4656 42.6384 36.8722C42.9803 36.2789 43.0816 35.577 42.9215 34.9112L42.3195 32.4913C39.645 21.3639 33.7684 11.2642 25.4161 3.44052L22.8407 1.1761C22.6414 0.993444 22.3815 0.891171 22.1112 0.889064V0.88109Z" fill="#00D747"/>
</g>
<g opacity="0.7">
<path opacity="0.7" d="M21.4513 39.0332C17.8075 39.0332 14.1637 38.9535 10.5478 38.7861L2.19578 38.3236C1.89395 38.3053 1.60136 38.2125 1.34417 38.0535C1.08698 37.8945 0.873197 37.6743 0.721944 37.4124C0.57069 37.1506 0.486679 36.8554 0.477421 36.5531C0.468162 36.2509 0.533946 35.9511 0.66889 35.6805L4.53196 28.1457C8.22012 20.9671 12.2677 13.9789 16.6594 7.20777L20.8733 0.689589C21.0068 0.483913 21.1896 0.314877 21.4051 0.197854C21.6206 0.0808299 21.8619 0.0195312 22.1071 0.0195313C22.3524 0.0195312 22.5937 0.0808299 22.8092 0.197854C23.0247 0.314877 23.2075 0.483913 23.341 0.689589L27.5549 7.20777C31.9465 13.9789 35.9941 20.9671 39.6823 28.1457L43.3261 35.2818C43.4858 35.5922 43.5651 35.9376 43.5569 36.2865C43.5487 36.6354 43.4532 36.9767 43.2792 37.2792C43.1051 37.5817 42.858 37.8358 42.5605 38.0182C42.263 38.2007 41.9245 38.3057 41.576 38.3236L34.7428 38.6784C30.3256 38.9136 25.8885 39.0332 21.4513 39.0332ZM22.1051 1.08427C22.0378 1.08371 21.9713 1.10023 21.9121 1.1323C21.8528 1.16437 21.8027 1.21094 21.7663 1.26765L17.5683 7.77388C13.192 14.5203 9.15643 21.4818 5.4768 28.6321L1.6217 36.1469C1.56272 36.2602 1.53316 36.3864 1.53574 36.5141C1.53833 36.6417 1.57298 36.7667 1.6365 36.8775C1.70002 36.9882 1.79037 37.0812 1.89925 37.1479C2.00813 37.2146 2.13203 37.2529 2.25957 37.2592L10.6036 37.7256C18.6284 38.0884 26.6663 38.0485 34.687 37.606L41.5241 37.2472C41.6961 37.2407 41.8636 37.19 42.0102 37.0999C42.1569 37.0098 42.2778 36.8834 42.3613 36.7329C42.4474 36.5846 42.4947 36.4171 42.4989 36.2457C42.503 36.0742 42.464 35.9045 42.3853 35.7522L38.7375 28.6281C35.0637 21.479 31.0334 14.5189 26.6619 7.77388L22.448 1.26765C22.4112 1.21036 22.3605 1.16343 22.3004 1.13133C22.2404 1.09923 22.1732 1.08303 22.1051 1.08427Z" fill="#00D747"/>
</g>
<path d="M1.62473 37.941C1.41661 37.9429 1.21249 37.8839 1.03743 37.7713C0.862375 37.6587 0.724006 37.4975 0.63932 37.3074C0.554635 37.1172 0.527321 36.9065 0.560734 36.7011C0.594146 36.4957 0.68683 36.3045 0.827401 36.151C14.5295 21.1851 19.9394 5.18665 21.271 0.637871C21.3246 0.453339 21.4369 0.29129 21.5908 0.176213C21.7447 0.0611363 21.9319 -0.000714821 22.1241 6.23362e-06C22.3168 -0.000466725 22.5044 0.0619597 22.6584 0.177805C22.8124 0.29365 22.9243 0.456584 22.9773 0.641858C24.2889 5.13083 29.6071 20.93 43.086 35.8201C43.2529 36.0089 43.3559 36.2455 43.3804 36.4963C43.4049 36.7471 43.3495 36.9992 43.2222 37.2167C43.0949 37.4341 42.9022 37.6058 42.6716 37.7073C42.4409 37.8087 42.1841 37.8347 41.9378 37.7815C36.0615 36.438 20.4099 33.763 1.86792 37.9131C1.78845 37.9331 1.70667 37.9425 1.62473 37.941ZM22.1241 1.95745C20.378 7.53877 14.8126 22.5206 1.99549 36.6414C20.5613 32.567 36.2488 35.2381 42.177 36.5935C29.3918 22.4808 23.8583 7.51884 22.1241 1.95745Z" fill="#00D747"/>
<path d="M59.7246 37.4824L57.4961 42.7408H58.1539L58.7957 41.2139H61.399L62.0449 42.7408H62.7027L60.4701 37.4824H59.7246ZM59.027 40.6717L60.0994 38.1083L61.1718 40.6717H59.027Z" fill="#090A12"/>
<path d="M69.1995 37.4866H68.6055V42.737H72.0659V42.1669H69.1995V37.4866Z" fill="#090A12"/>
<path d="M80.0676 40.4846H81.9891C81.9978 40.7273 81.9509 40.9687 81.8521 41.1904C81.7533 41.4122 81.6052 41.6085 81.419 41.7643C81.0177 42.0891 80.5101 42.2534 79.9946 42.2254C79.479 42.1974 78.9922 41.9791 78.6284 41.6129C78.2808 41.1899 78.0908 40.6594 78.0908 40.1119C78.0908 39.5644 78.2808 39.0339 78.6284 38.6109C78.8071 38.417 79.0262 38.2646 79.2702 38.1644C79.5632 38.0491 79.8763 37.9936 80.1911 38.0009C80.5286 37.9948 80.8617 38.0787 81.1559 38.2441C81.4352 38.4006 81.6646 38.6327 81.8177 38.9139H82.4715C82.2778 38.4708 81.9574 38.0949 81.5506 37.8335C81.3394 37.7024 81.1114 37.6005 80.8729 37.5305C80.5856 37.4537 80.2891 37.4175 79.9918 37.4229C79.6539 37.4219 79.3197 37.4926 79.0111 37.6302C78.709 37.767 78.4377 37.9636 78.2138 38.2083C77.7622 38.7385 77.5122 39.4111 77.5079 40.1075C77.5035 40.804 77.745 41.4796 78.1898 42.0155C78.4132 42.2608 78.6846 42.4576 78.9872 42.5936C79.2882 42.7286 79.6141 42.7992 79.944 42.8009C80.2039 42.808 80.4638 42.7826 80.7174 42.7251C81.2341 42.5859 81.6813 42.2608 81.9732 41.8122V42.7411H82.5552V39.9504H80.0835L80.0676 40.4846Z" fill="#090A12"/>
<path d="M91.1589 37.4229C90.7992 37.4117 90.4412 37.477 90.1085 37.6144C89.7759 37.7519 89.4762 37.9583 89.2293 38.2202C88.7551 38.7407 88.4922 39.4196 88.4922 40.1238C88.4922 40.828 88.7551 41.5069 89.2293 42.0274C89.7454 42.531 90.4378 42.8129 91.1589 42.8129C91.8799 42.8129 92.5724 42.531 93.0884 42.0274C93.5627 41.5069 93.8256 40.828 93.8256 40.1238C93.8256 39.4196 93.5627 38.7407 93.0884 38.2202C92.8411 37.9589 92.5413 37.7529 92.2088 37.6155C91.8763 37.4781 91.5185 37.4124 91.1589 37.4229ZM92.6738 41.6128C92.2656 42.0039 91.7222 42.2222 91.1569 42.2222C90.5916 42.2222 90.0482 42.0039 89.64 41.6128C89.282 41.1946 89.0853 40.6623 89.0853 40.1119C89.0853 39.5614 89.282 39.0291 89.64 38.6109C90.0482 38.2198 90.5916 38.0015 91.1569 38.0015C91.7222 38.0015 92.2656 38.2198 92.6738 38.6109C93.0318 39.0291 93.2285 39.5614 93.2285 40.1119C93.2285 40.6623 93.0318 41.1946 92.6738 41.6128Z" fill="#090A12"/>
<path d="M71.1353 17.7964C70.1078 17.37 69.039 17.0508 67.946 16.8436C66.7939 16.6164 65.7255 16.3732 64.7567 16.1061C63.8948 15.8924 63.0698 15.5511 62.3089 15.0935C61.9977 14.9085 61.7427 14.6423 61.5713 14.3235C61.4 14.0046 61.3187 13.6451 61.3361 13.2835C61.3361 11.3779 62.867 10.4251 65.9288 10.4251C68.9905 10.4251 70.653 11.4576 70.9161 13.5227H73.934C73.8016 12.0074 73.0732 10.6065 71.9088 9.62775C70.5054 8.46364 68.5839 7.88159 66.144 7.88159C63.5766 7.88159 61.6365 8.37727 60.3235 9.36861C59.6794 9.85497 59.1637 10.4912 58.8212 11.2221C58.4786 11.9529 58.3197 12.7563 58.3581 13.5626C58.294 14.6074 58.6434 15.6356 59.3309 16.425C60.0176 17.1393 60.8515 17.6956 61.7747 18.0555C62.8063 18.4656 63.874 18.7779 64.964 18.9884C66.1201 19.2117 67.1846 19.4628 68.1533 19.7419C69.0186 19.9706 69.843 20.3324 70.5971 20.8143C70.9098 21.0173 71.164 21.2985 71.3346 21.6299C71.5052 21.9613 71.5863 22.3316 71.5699 22.704C71.5699 23.9239 70.9347 24.785 69.6643 25.2873C69.114 25.4953 68.5414 25.6385 67.958 25.7139C67.3315 25.7965 66.7002 25.8365 66.0683 25.8335C65.3747 25.8311 64.6853 25.725 64.0231 25.5186C62.1414 24.8807 61.1089 23.6488 60.9255 21.8229H57.8398C57.8693 22.7061 58.0907 23.5722 58.4887 24.3611C58.8866 25.1501 59.4515 25.843 60.1441 26.3916C61.7069 27.7205 63.8132 28.385 66.463 28.385C68.956 28.385 70.9294 27.876 72.3832 26.8581C73.837 25.8402 74.5665 24.3624 74.5718 22.4249C74.6306 21.3566 74.2831 20.3055 73.5991 19.4828C72.9126 18.7454 72.0712 18.1695 71.1353 17.7964Z" fill="#090A12"/>
<path d="M91.9223 19.6425C91.9519 20.455 91.8115 21.2647 91.5101 22.0199C91.2088 22.775 90.7531 23.4589 90.1722 24.0278C89.6094 24.5733 88.944 25.0019 88.2146 25.2886C87.4851 25.5753 86.706 25.7145 85.9224 25.6982C85.1761 25.7247 84.4327 25.5931 83.7408 25.3121C83.0489 25.0311 82.4243 24.607 81.9078 24.0677C80.8766 22.9806 80.3597 21.5189 80.357 19.6823V8.19678H77.375V19.7581C77.375 22.4159 78.1949 24.5487 79.8348 26.1567C80.5382 26.8904 81.3943 27.4606 82.3424 27.8271C83.4332 28.2213 84.5874 28.4105 85.747 28.3852C86.9973 28.4061 88.2264 28.061 89.2831 27.3925C90.2956 26.7481 91.1841 25.9271 91.9064 24.9686V28.0703H94.9163V8.19678H91.9343L91.9223 19.6425Z" fill="#090A12"/>
<path d="M106.382 8.51547C105.4 8.92769 104.522 9.55062 103.808 10.3401C103.094 11.1297 102.563 12.0665 102.252 13.0842V8.19654H99.2695V28.07H102.252V19.3353C102.199 17.2141 102.871 15.1385 104.157 13.451C104.762 12.6332 105.554 11.972 106.467 11.5226C107.38 11.0732 108.386 10.8486 109.404 10.8676H109.762V7.88159H109.563C108.468 7.8505 107.381 8.06719 106.382 8.51547Z" fill="#090A12"/>
<path d="M127.169 11.362C125.575 9.03116 123.276 7.86572 120.273 7.86572C117.269 7.86572 114.865 8.84511 113.061 10.8039C111.312 12.7148 110.438 15.1068 110.438 17.9799C110.438 20.8529 111.312 23.2369 113.061 25.1319C114.863 27.0934 117.194 28.0741 120.053 28.0741C123.184 28.0741 125.556 26.894 127.169 24.5339V27.2768C127.169 29.3445 126.653 30.9086 125.619 31.969C124.585 33.0295 122.916 33.5611 120.611 33.5637C117.59 33.5637 115.656 32.5312 114.811 30.4661H111.51C112.051 32.19 113.167 33.6761 114.671 34.676C116.221 35.7391 118.374 36.2706 121.13 36.2706C123.886 36.2706 126.077 35.5225 127.704 34.0262C129.333 32.5272 130.148 30.3478 130.148 27.488V8.19662H127.169V11.362ZM125.539 23.2024C124.926 23.8695 124.182 24.4041 123.354 24.7731C122.44 25.1728 121.45 25.37 120.452 25.3512C118.307 25.3512 116.58 24.6349 115.269 23.2024C114.008 21.7529 113.342 19.8802 113.404 17.9599C113.342 16.0384 114.008 14.1644 115.269 12.7135C116.569 11.2836 118.297 10.5687 120.452 10.5687C121.405 10.5341 122.354 10.7081 123.233 11.0786C124.111 11.4491 124.898 12.0071 125.539 12.7135C126.732 14.0902 127.329 15.839 127.329 17.9599C127.329 20.0808 126.732 21.8336 125.539 23.2183V23.2024Z" fill="#090A12"/>
<path d="M152.999 18.1392C152.999 15.197 152.125 12.7718 150.376 10.8635C148.515 8.87818 146.105 7.8855 143.144 7.8855C140.183 7.8855 137.773 8.87818 135.912 10.8635C134.163 12.7718 133.289 15.197 133.289 18.1392C133.289 21.0813 134.203 23.5052 136.032 25.4108C137.911 27.3962 140.348 28.3889 143.343 28.3889C145.698 28.3889 147.625 27.8334 149.124 26.7225C150.622 25.6116 151.762 24.0874 152.405 22.3371H149.132C147.968 24.5617 146.048 25.6753 143.371 25.6779C142.482 25.7091 141.596 25.5634 140.764 25.2492C139.932 24.9351 139.17 24.4588 138.524 23.8481C137.283 22.6518 136.51 21.0511 136.347 19.3352H152.999V18.1392ZM136.375 16.5445C136.577 14.9206 137.336 13.4172 138.524 12.2908C139.807 11.1896 141.441 10.5843 143.132 10.5843C144.823 10.5843 146.458 11.1896 147.741 12.2908C148.932 13.4154 149.696 14.919 149.901 16.5445H136.375Z" fill="#090A12"/>
</svg>
