<svg width="41" height="45" viewBox="0 0 41 45" fill="none" xmlns="http://www.w3.org/2000/svg">
<g opacity="0.2">
<path opacity="0.2" d="M20.4166 44.8704C18.1436 44.8725 15.9096 44.2799 13.9364 43.1515L2.51373 36.553C1.74876 36.1104 1.11375 35.4744 0.672504 34.7087C0.231257 33.943 -0.000680495 33.0746 1.49968e-06 32.1909L0.0295747 18.9236C0.0336306 16.6339 0.638732 14.3854 1.78437 12.4029C2.93001 10.4204 4.57604 8.77343 6.55787 7.62664L18.5387 0.702806C19.1354 0.357878 19.8124 0.17627 20.5016 0.17627C21.1909 0.17627 21.8679 0.357878 22.4646 0.702806L34.4491 7.62664C36.4293 8.77465 38.0737 10.4221 39.2179 12.4045C40.3622 14.3868 40.9663 16.6347 40.97 18.9236L40.9478 32.4977C40.9454 33.2653 40.7421 34.019 40.3582 34.6837C39.9742 35.3484 39.4231 35.9011 38.7594 36.2868L26.9782 43.1071C24.9852 44.2643 22.7212 44.8727 20.4166 44.8704ZM20.5016 0.55494C19.8779 0.555494 19.2651 0.718577 18.7236 1.02811L6.7427 7.94825C4.81704 9.06219 3.21761 10.6622 2.10439 12.5883C0.991166 14.5144 0.403181 16.699 0.39924 18.9236L0.369667 32.1909C0.367365 33.0094 0.581151 33.8141 0.989423 34.5235C1.3977 35.233 1.98599 35.8221 2.69486 36.2314L14.1175 42.8299C16.0489 43.9321 18.2358 44.5081 20.4595 44.5003C22.6833 44.4925 24.866 43.9012 26.7897 42.7855L38.5709 35.9652C39.1784 35.6123 39.683 35.1066 40.0345 34.4983C40.3859 33.89 40.5721 33.2003 40.5745 32.4977L40.5967 18.9236C40.5935 16.7001 40.007 14.5164 38.8958 12.5905C37.7846 10.6646 36.1876 9.06387 34.2643 7.94825L22.2797 1.02072C21.7379 0.712805 21.1249 0.552214 20.5016 0.55494Z" fill="#00D747"/>
</g>
<g opacity="0.3">
<path opacity="0.3" d="M20.3967 41.9572C16.1085 41.9526 11.8753 40.9915 8.00551 39.1441L2.46792 36.4122C1.70223 36.0384 1.06655 35.443 0.643367 34.7034C0.220182 33.9639 0.0290168 33.1142 0.0946719 32.2646L0.56045 26.0616C0.877654 21.7326 2.17375 17.5322 4.35097 13.7771C6.52819 10.022 9.52969 6.81039 13.1291 4.38443L19.3062 0.436402C19.6612 0.211621 20.0727 0.0922852 20.4928 0.0922852C20.913 0.0922852 21.3245 0.211621 21.6794 0.436402L27.8602 4.37704C31.459 6.80457 34.4599 10.0171 36.637 13.7726C38.8141 17.5281 40.1106 21.7287 40.4289 26.0579L40.854 32.2202C40.9147 33.0685 40.7205 33.9155 40.2963 34.6526C39.8721 35.3897 39.2373 35.9831 38.4733 36.3568L33.0651 38.9999C29.1701 40.9157 24.8925 41.9266 20.552 41.9572H20.3967ZM20.4928 0.702561C20.19 0.703109 19.8937 0.790337 19.6389 0.953934L13.4766 4.89457C9.95449 7.26871 7.01725 10.4113 4.8862 14.0856C2.75515 17.7599 1.4859 21.8699 1.1741 26.106L0.708316 32.3237C0.651873 33.051 0.815609 33.7784 1.17822 34.4113C1.54084 35.0443 2.08554 35.5534 2.74148 35.8725L8.28646 38.5933C12.1182 40.4274 16.3164 41.3678 20.5644 41.3434C24.8125 41.3191 28.9996 40.3307 32.8101 38.4528L38.222 35.8023C38.8778 35.4841 39.4231 34.9766 39.7875 34.3453C40.1519 33.714 40.3186 32.9879 40.2662 32.2609L39.8411 26.1023C39.5284 21.8647 38.2572 17.7536 36.1235 14.0791C33.9898 10.4046 31.0492 7.26284 27.5238 4.89087L21.3467 0.953934C21.0911 0.792575 20.7951 0.706719 20.4928 0.706258V0.702561Z" fill="#00D747"/>
</g>
<g opacity="0.5">
<path opacity="0.5" d="M20.3087 38.9999C15.0864 38.9949 9.89123 38.2481 4.87891 36.7819L2.29125 35.9687C1.61291 35.7476 1.04214 35.2802 0.691712 34.6587C0.341283 34.0372 0.236679 33.307 0.398564 32.6121L1.04548 29.9394C3.56187 19.4793 9.08807 9.98585 16.9411 2.63224L19.3439 0.521453C19.6661 0.239135 20.08 0.0834961 20.5084 0.0834961C20.9368 0.0834961 21.3506 0.239135 21.6728 0.521453L24.0572 2.62485C31.9119 9.98005 37.4383 19.4764 39.9528 29.9394L40.4925 32.2129C40.6804 33.0132 40.5554 33.855 40.1431 34.5662C39.7308 35.2774 39.0623 35.8042 38.2745 36.0389L36.4557 36.5823C31.2231 38.1845 25.7812 38.9993 20.3087 38.9999ZM20.501 0.817185C20.2535 0.815639 20.014 0.9051 19.8282 1.06856L17.4327 3.17565C9.68659 10.4345 4.23853 19.805 1.76263 30.128L1.1379 32.7859C1.01481 33.3027 1.09154 33.847 1.35271 34.3097C1.61388 34.7724 2.04021 35.1194 2.54632 35.2811L5.1118 36.0907C15.2962 39.0656 26.1292 38.9897 36.2709 35.8726L38.0934 35.3292C38.702 35.148 39.2179 34.7404 39.535 34.1902C39.852 33.64 39.946 32.9892 39.7975 32.3718L39.2393 30.128C36.7593 19.8101 31.3102 10.445 23.5655 3.19044L21.1775 1.09074C20.9927 0.921366 20.7516 0.826533 20.501 0.824578V0.817185Z" fill="#00D747"/>
</g>
<g opacity="0.7">
<path opacity="0.7" d="M19.8943 36.1938C16.5156 36.1938 13.1368 36.1199 9.78396 35.9646L2.03947 35.5358C1.7596 35.5188 1.48829 35.4328 1.24981 35.2854C1.01132 35.1379 0.813095 34.9337 0.672844 34.6909C0.532593 34.4481 0.454693 34.1743 0.446108 33.8941C0.437523 33.6138 0.498522 33.3358 0.62365 33.0849L4.20571 26.0982C7.62558 19.4418 11.3787 12.962 15.4509 6.68341L19.3583 0.639382C19.4821 0.448667 19.6516 0.291928 19.8514 0.183417C20.0513 0.074906 20.275 0.0180664 20.5024 0.0180664C20.7298 0.0180664 20.9536 0.074906 21.1534 0.183417C21.3532 0.291928 21.5227 0.448667 21.6465 0.639382L25.5539 6.68341C29.6261 12.962 33.3792 19.4418 36.7991 26.0982L40.1779 32.7153C40.3259 33.003 40.3995 33.3233 40.3919 33.6468C40.3842 33.9704 40.2957 34.2868 40.1343 34.5673C39.9729 34.8478 39.7438 35.0834 39.468 35.2526C39.1921 35.4218 38.8782 35.5191 38.555 35.5358L32.219 35.8648C28.1231 36.0829 24.0087 36.1938 19.8943 36.1938ZM20.5006 1.00535C20.4381 1.00483 20.3765 1.02016 20.3215 1.04989C20.2666 1.07963 20.2201 1.12281 20.1863 1.1754L16.2938 7.20834C12.2358 13.464 8.49378 19.9191 5.08181 26.5492L1.50715 33.5174C1.45246 33.6224 1.42505 33.7395 1.42745 33.8579C1.42984 33.9763 1.46197 34.0921 1.52087 34.1948C1.57977 34.2975 1.66355 34.3838 1.76451 34.4456C1.86547 34.5075 1.98036 34.543 2.09861 34.5488L9.83571 34.9813C17.2767 35.3177 24.7299 35.2807 32.1672 34.8704L38.507 34.5377C38.6664 34.5317 38.8217 34.4846 38.9577 34.4011C39.0937 34.3176 39.2058 34.2004 39.2833 34.0608C39.363 33.9233 39.4069 33.7679 39.4108 33.609C39.4147 33.4501 39.3784 33.2927 39.3054 33.1515L35.923 26.5455C32.5165 19.9165 28.7794 13.4627 24.7258 7.20834L20.8185 1.1754C20.7844 1.12227 20.7373 1.07876 20.6817 1.04899C20.626 1.01922 20.5637 1.0042 20.5006 1.00535Z" fill="#00D747"/>
</g>
<path d="M1.50726 35.1811C1.31428 35.1828 1.12501 35.1281 0.962685 35.0237C0.800362 34.9193 0.672058 34.7698 0.593533 34.5935C0.515008 34.4172 0.489681 34.2218 0.520663 34.0314C0.551645 33.8409 0.637587 33.6636 0.767932 33.5213C13.4733 19.644 18.4897 4.80935 19.7244 0.591471C19.7741 0.420362 19.8782 0.270101 20.021 0.163395C20.1637 0.056689 20.3373 -0.000662822 20.5155 5.78017e-06C20.6941 -0.000432774 20.8681 0.0574526 21.0108 0.164871C21.1536 0.272289 21.2574 0.42337 21.3065 0.595167C22.5227 4.7576 27.4541 19.4074 39.9525 33.2144C40.1073 33.3895 40.2028 33.6089 40.2255 33.8414C40.2482 34.074 40.1969 34.3078 40.0788 34.5094C39.9608 34.711 39.7821 34.8703 39.5682 34.9643C39.3543 35.0584 39.1162 35.0825 38.8878 35.0332C33.439 33.7874 18.9259 31.307 1.73276 35.1552C1.65907 35.1738 1.58324 35.1825 1.50726 35.1811ZM20.5155 1.81506C18.8963 6.99038 13.7358 20.8824 1.85105 33.976C19.0664 30.198 33.6127 32.6747 39.1096 33.9316C27.2545 20.8454 22.1235 6.9719 20.5155 1.81506Z" fill="#00D747"/>
</svg>
